<?xml version="1.0" encoding="utf-8"?>
<!-- Generator: Adobe Illustrator 27.5.0, SVG Export Plug-In . SVG Version: 6.00 Build 0)  -->
<svg version="1.1" xmlns="http://www.w3.org/2000/svg" xmlns:xlink="http://www.w3.org/1999/xlink" x="0px" y="0px"
	 viewBox="0 0 750 500" style="enable-background:new 0 0 750 500;" xml:space="preserve">
<g id="BACKGROUND">
	<rect style="fill:'none';" width="750" height="500"/>
</g>
<g id="OBJECTS">
	<g>
		<line style="fill:none;stroke:#1C0C00;stroke-miterlimit:10;" x1="117.586" y1="426.258" x2="365.358" y2="426.258"/>
		<line style="fill:none;stroke:#1C0C00;stroke-miterlimit:10;" x1="475.73" y1="426.258" x2="539.925" y2="426.258"/>
		<path style="fill:none;stroke:#1C0C00;stroke-miterlimit:10;" d="M408.765,452.182c20.069-0.035,40.139-0.123,60.207-0.263"/>
		<path style="fill:none;stroke:#1C0C00;stroke-miterlimit:10;" d="M384.717,452.2c1.389,0,8.778-0.001,10.167-0.002"/>
		<path style="fill:none;stroke:#1C0C00;stroke-miterlimit:10;" d="M307.156,451.919c17.424,0.121,34.849,0.203,52.274,0.246"/>
		<path style="fill:none;stroke:#1C0C00;stroke-miterlimit:10;" d="M272.452,452.14c8.295,0.126,16.595,0.062,24.887-0.221"/>
		<path style="fill:#D8EDE7;" d="M71.542,398.969c11.316,10.552,27.012,14.858,42.227,17.665
			c12.189,2.248,24.469,3.748,36.801,4.744h148.9c58.872-1.051,117.757-1.568,176.59,0h127.532
			c5.258-1.037,10.462-2.364,15.59-4.062c28.29-9.365,52.286-31.543,56.907-61.688c4.904-31.996,19.491-62.152,22.603-95.511
			c5.8-62.186-9.852-131.223-54.295-168.211c-46.162-38.418-108.764-33.078-166.014-33.433c-13.378-0.083-26.746-0.696-40.097-1.521
			c-62.245-3.846-124.738-12.581-187.15-6.743c-43.703,4.088-89.096,16.697-125.904,41.888
			c-13.728,9.396-24.871,20.036-33.916,31.812c-18.781,24.449-28.523,53.791-33.603,87.049
			c-5.339,34.949-7.858,70.328-7.537,105.681C50.425,344.124,49.618,378.525,71.542,398.969z"/>
		<line style="fill:none;stroke:#1C0C00;stroke-miterlimit:10;" x1="90.368" y1="421.064" x2="659.119" y2="421.064"/>
		<g>
			<line style="fill:none;stroke:#1C0C00;stroke-miterlimit:10;" x1="155.301" y1="148.077" x2="169.956" y2="162.732"/>
			<line style="fill:none;stroke:#1C0C00;stroke-miterlimit:10;" x1="169.956" y1="148.077" x2="155.301" y2="162.732"/>
		</g>
		<g>
			<line style="fill:none;stroke:#1C0C00;stroke-miterlimit:10;" x1="660.419" y1="172.572" x2="675.074" y2="187.228"/>
			<line style="fill:none;stroke:#1C0C00;stroke-miterlimit:10;" x1="675.074" y1="172.572" x2="660.419" y2="187.228"/>
		</g>
		<g>
			<line style="fill:none;stroke:#1C0C00;stroke-miterlimit:10;" x1="131.945" y1="115.979" x2="146.601" y2="130.634"/>
			<line style="fill:none;stroke:#1C0C00;stroke-miterlimit:10;" x1="146.601" y1="115.979" x2="131.945" y2="130.634"/>
		</g>
		<polyline style="fill:none;stroke:#1C0C00;stroke-miterlimit:10;" points="188.294,110.882 196.141,119.358 208.229,100.493 		"/>
		<polyline style="fill:none;stroke:#1C0C00;stroke-linecap:round;stroke-miterlimit:10;" points="423.524,238.225 431.37,246.7 
			443.459,227.836 		"/>
		<polyline style="fill:none;stroke:#1C0C00;stroke-miterlimit:10;" points="599.653,105.814 607.5,114.29 619.588,95.425 		"/>
		<g>
			<g>
				<g>
					<polyline style="fill:none;stroke:#000000;stroke-width:2;stroke-linecap:round;stroke-miterlimit:10;" points="112.7,420.65 
						124.147,383.792 165.943,383.651 169.899,420.509 					"/>
					<polyline style="fill:none;stroke:#000000;stroke-width:2;stroke-linecap:round;stroke-miterlimit:10;" points="
						294.546,419.97 307.968,379.057 350.303,381.309 353.157,420.167 					"/>
					<path style="fill:#78AB9C;" d="M359.345,396.777h-71.139c-3.537,0-6.404-2.867-6.404-6.404V285.046
						c0-3.537,2.867-6.404,6.404-6.404h71.139c11.731,0,21.241,9.51,21.241,21.241v75.652
						C380.586,387.267,371.076,396.777,359.345,396.777z"/>
					<path style="fill:#648F82;" d="M106.095,336.639c-0.113-3.36-16.172-67.614-21.585-89.189
						c-1.097-4.371,0.088-8.994,3.147-12.303l26.972-16.781c3.003-1.844,2.874,2.489,3.7,5.915l23.805,98.761L106.095,336.639z"/>
					<path style="fill:#A5D9CA;" d="M310.657,337.71H141.389l-29.62-111.995c-1.121-4.238,2.064-8.392,6.448-8.41l151.4-1.036
						c9.859,0,18.344,6.968,20.262,16.639L310.657,337.71z"/>
					
						<rect x="137.538" y="328.889" transform="matrix(-1 -1.224647e-16 1.224647e-16 -1 470.2811 703.5098)" style="fill:#78AB9C;" width="195.205" height="45.731"/>
					
						<rect x="137.538" y="370.184" transform="matrix(-1 -1.224647e-16 1.224647e-16 -1 468.7313 766.9604)" style="fill:#78AB9C;" width="193.655" height="26.593"/>
				</g>
				<line style="fill:none;stroke:#000000;stroke-miterlimit:10;" x1="340.933" y1="370.184" x2="181.998" y2="370.184"/>
				<path style="fill:#91C7B8;" d="M374.204,396.777H346.89c-3.525,0-6.382-2.857-6.382-6.382v-93.558
					c0-10.049,8.146-18.194,18.194-18.194h3.689c10.048,0,18.194,8.146,18.194,18.194v93.558
					C380.586,393.919,377.728,396.777,374.204,396.777z"/>
				<g>
					<path d="M292.447,411.23c-0.034,0.099-0.068,0.198-0.101,0.297c-0.991,2.974-1.525,6.083-2.45,9.078
						c1.586,0.169,3.095,0.974,4.119,2.197c0.393,0.47,3.296-4.646,3.46-5.118c-0.64,1.846,0.808,4.886,1.214,6.688
						c0.456,2.018,1.062,3.658,2.326,5.364c2.55,3.442,6.343,5.686,10.027,7.724c3.865,2.138,8.072,4.087,12.485,3.896
						c0.689-0.03,1.426-0.134,1.933-0.601c1.209-1.111,0.237-3.093-0.759-4.399c-3.234-4.244-6.84-8.377-8.884-13.316
						c-4.612-11.142-5.86-16.352-9.117-19.964c-3.153-3.497-4.48,0.18-8.615-2.022c-0.174-0.092-0.376-0.187-0.559-0.115
						c-0.146,0.058-0.233,0.205-0.309,0.342C295.436,404.504,293.645,407.75,292.447,411.23z"/>
					<path style="fill:#D79090;" d="M311.583,400.714c-0.661,3.514-1.185,7.091-0.581,10.599c0.218,1.266,0.583,2.55,0.358,3.816
						c-0.333,1.875-2.317,2.998-4.103,2.6c-4.966-1.105-10.129-5.536-11.107-10.721c-0.508-2.693,0.628-5.963,0.616-8.811
						c-0.017-3.849-0.361-7.691-0.292-11.542c0.05-2.766,0.348-5.646,1.819-7.989c2.467-3.927,9.135-4.31,12.919-2.159
						c3.04,1.729,3.346,6.18,3.236,9.27c-0.164,4.591-1.7,8.936-2.58,13.451C311.773,399.722,311.677,400.217,311.583,400.714z"/>
					<path style="fill:#FFFFFF;" d="M291.718,385.35c-0.056-0.687-0.091-1.376-0.123-2.061c-1.12-23.506-0.624-47.09,1.482-70.528
						c0.626-6.961-14.342-27.218-5.992-29.63c1.684-0.486,18.976,1.504,20.726,1.609c3.555,0.215,7.168,0.487,10.495,1.757
						c16.429,6.268,12.948,31.133,11.202,44.573c-2.488,19.152-5.001,39.514-10.992,57.903c-0.746,2.289-1.72,4.747-3.822,5.922
						c-1.107,0.619-2.401,0.799-3.664,0.92c-6.054,0.58-15.232,1.364-18.197-5.392C292.132,388.827,291.859,387.097,291.718,385.35z
						"/>
					<path style="fill:#CC5454;" d="M243.914,208.717c-9.494,4.464-11.992,12.76-14.765,22.307
						c-2.481,8.541-3.131,17.528-5.576,26.079c-2.962,10.362-8.461,19.778-13.379,29.368c-1.977,3.854-3.903,8.332-2.342,12.372
						c1.127,2.918,3.919,4.937,6.894,5.904c2.975,0.967,6.156,1.032,9.284,1.089c16.231,0.295,32.463,0.591,48.694,0.886
						c5.312,0.097,11.426-0.164,14.726-4.329c1.427-1.802,2.078-4.08,2.696-6.294c3.989-14.282,7.979-28.566,11.529-42.963
						c0.971-3.94,1.95-7.896,2.655-11.895c0.504-2.859-0.238-5.162-0.049-7.891c0.141-2.041,3.438-3.397,4.919-4.246
						c2.118-1.214,5.202-2.572,6.494-4.711c0.197-0.326,0.364-0.682,0.387-1.062c0.046-0.763-1.115-1.354-1.686-1.861
						c-7.034-6.242-10.424-13.636-18.145-15.6c-6.845-1.741-14.037-0.485-20.974-0.198c-9.941,0.411-21.082-1.342-30.451,2.637
						C244.515,208.441,244.211,208.577,243.914,208.717z"/>
					<path style="fill:#D79090;" d="M263.539,193.656c0.194-2.028,0.237-4.077,0.186-6.095c-0.166-6.549-1.211-13.088-0.771-19.624
						c0.528-7.832,5.451-13.218,13.325-14.063c6.297-0.675,13.109,1.978,16.18,7.751c4.465,8.397,2.137,24.646-7.893,27.808
						c-1.069,5.587-2.832,13.827-1.265,19.392c-3.789,1.637-8.425,2.697-12.566,2.683c-4.328-0.015-8.879-1.612-11.401-5.129
						C261.913,202.651,263.105,198.209,263.539,193.656z"/>
					<path style="fill:#CC5454;" d="M307.822,215.934c3.139,3.243,6.843,5.907,10.815,8.098c2.897,1.599,6.264,2.857,9.47,2.035
						c3.758-0.963,6.28-4.544,7.616-8.186c3.141-8.563,3.595-19.024,12.734-23.909c3.511-1.877,7.847-1.975,11.571-0.568
						c8.19,3.096,12.839,12.308,12.305,20.716c-0.419,6.606-2.953,12.889-5.842,18.844c-2.777,5.724-6.236,11.102-9.132,16.712
						c-2.651,5.135-7.342,9.961-12.075,13.22c-7.034,4.843-15.98,6.764-24.412,5.41c-13.849-2.224-20.638-10.922-26.992-22.363
						c-1.154-2.077-2.325-4.204-2.738-6.544c-1.016-5.753,2.726-10.792,4.317-16.04c0.671-2.214,1.326-4.444,1.736-6.724
						c0.356-1.98,0.492-4.324,1.684-6.024c1.799-2.566,4.231-1.416,5.605,0.908C305.423,213.111,306.539,214.608,307.822,215.934z"
						/>
					<path d="M239.613,407.404c-1.268,1.848-2.495,3.724-3.681,5.625c-0.246,0.395-0.494,0.798-0.615,1.247
						c-0.367,1.357,0.478,2.716,1.282,3.868c1.845-0.781,3.495-2.019,4.761-3.572c-1.234,1.514-0.918,4.866-1.154,6.699
						c-0.265,2.052-0.257,3.8,0.344,5.837c1.214,4.108,4.007,7.518,6.768,10.696c2.896,3.334,6.18,6.608,10.39,7.943
						c0.657,0.208,1.385,0.363,2.022,0.099c1.517-0.629,1.284-2.824,0.797-4.393c-1.581-5.096-3.024-10.264-3.776-15.556
						c-0.679-4.781,0.431-14.088-1.388-18.599c-1.363-3.38-3.484-2.521-5.721-5.399c-0.798-1.026-1.923-2.117-3.194-1.844
						c-2.243,0.482-3.962,3.276-5.172,4.972C240.714,405.815,240.16,406.607,239.613,407.404z"/>
					<path style="fill:#D79090;" d="M260.086,403.267c-1.396,2.218-2.596,4.538-3.318,7.1c-0.781,2.767-1.147,6.019-3.505,7.665
						c-0.387,0.271-0.835,0.488-1.308,0.484c-0.514-0.004-0.989-0.266-1.422-0.543c-4.285-2.742-7.615-8.676-6.753-13.882
						c0.447-2.704,2.636-5.386,3.601-8.064c1.305-3.622,2.3-7.348,3.686-10.942c0.996-2.581,2.264-5.185,4.45-6.88
						c3.665-2.842,10.059-0.914,12.876,2.405c2.821,3.325,0.121,10.041-1.866,13.244
						C264.538,397.059,262.107,400.056,260.086,403.267z"/>
					<path style="fill:#FFFFFF;" d="M307.705,303.909c-1.403-15.048-14.809-23.655-28.786-23.453
						c-10.956,0.159-21.896,2.19-32.592,4.57c-17.637,3.924-33.51,9.382-44.372,24.483c-2.693,3.77-9.724,13.913-5.906,18.616
						c0.279,0.344,0.652,0.633,1.059,0.9h50.243c5.29-0.953,10.608-1.582,13.731-3.406c-1.548,9.681-7.396,19.878-10.153,29.537
						c-3.12,10.93-5.447,22.086-6.947,33.352c-0.3,2.255-0.476,4.827,1.048,6.516c1.127,1.249,2.89,1.658,4.537,2.003
						c5.726,1.198,13.808,2.867,18.521-1.456c5.66-5.191,9.701-14.983,13.45-21.629c8.296-14.708,15.453-30.058,21.379-45.87
						C305.825,320.315,308.474,312.158,307.705,303.909z"/>
					<path style="fill:#CC5454;" d="M235.373,213.691c-6.218,4.57-12.436,9.14-18.655,13.71
						c-15.082,11.084-31.474,23.814-37.15,42.48c-1.517,4.988-2.183,10.343-1.041,15.43c1.142,5.086,4.264,9.87,8.904,12.248
						c3.891,1.995,8.681,2.141,12.687,0.389c6.112-2.674,9.619-8.973,13.519-14.386c6.611-9.178,15.902-14.329,23.558-22.128
						c4.45-4.533,8.819-9.204,12.421-14.455c1.695-2.47,3.175-4.827,5.049-7.137c2.095-2.583,4.059-5.273,5.882-8.055
						c0.944-1.44,1.865-2.941,2.249-4.619c0.418-1.827,0.171-3.733-0.099-5.588c-0.729-4.997-1.669-10.111-4.332-14.402
						c-0.244-0.393-0.52-0.795-0.932-1.006c-0.319-0.164-0.688-0.195-1.046-0.217C248.513,205.485,241.516,209.176,235.373,213.691z
						"/>
					<path style="fill:none;stroke:#000000;stroke-miterlimit:10;" d="M294.433,235.361c2.27,9.278,4.845,12.856,6.655,22.163"/>
					<path style="fill:#2C2A27;" d="M283.369,168.142c-1.519,0.457-3.049,0.873-4.59,1.249c-3.744,0.912-6.893,3.082-7.045,7.213
						c-0.087,2.367,0.721,3.902,0.021,6.214c-0.617,2.036-0.944,4.589-2.82,5.907c-1.961,1.377-4.826,0.598-6.523-1.093
						c-1.697-1.691-2.507-4.053-3.264-6.326c-0.685-2.056-1.369-4.111-2.054-6.167c-0.549-1.647-1.1-3.308-1.296-5.033
						c-0.48-4.242,1.241-8.444,3.494-12.07c1.945-3.131,4.467-6.117,7.901-7.457c4.246-1.657,7.993-0.173,12.212,0.443
						c3.677,0.537,7.041,0.445,10.672,1.849c3.424,1.324,8.966,5.377,5.723,9.567c-1.12,1.447-2.867,2.242-4.562,2.93
						C288.659,166.415,286.033,167.34,283.369,168.142z"/>
					<g>
						<defs>
							<path id="SVGID_1_" d="M265.966,193.896c0.219-7.105-3.877-13.326-4.23-20.42c-0.218-4.391,0.466-8.954,2.803-12.678
								c6.086-9.696,22.533-9.303,27.92,0.828c4.465,8.397,2.137,24.646-7.893,27.808c-1.536,8.03-1.749,14.711-0.956,21.323
								c0.04,0.337-0.044,0.71-0.281,0.953c-0.219,0.224-0.555,0.275-0.866,0.313c-5.01,0.621-10.148,1.242-15.179,0.473
								c-2.785-0.426-4.088-0.371-3.688-3.134C264.337,204.241,265.806,199.081,265.966,193.896z"/>
						</defs>
						<clipPath id="SVGID_00000114058746761846402120000004216017880095022782_">
							<use xlink:href="#SVGID_1_"  style="overflow:visible;"/>
						</clipPath>
						<path style="clip-path:url(#SVGID_00000114058746761846402120000004216017880095022782_);fill:#2C2A27;" d="M294.108,185.346
							c-2.296,2.284-5.601,3.158-8.743,3.943c-2.245,0.561-4.49,1.121-6.735,1.682c2.596,1.447,5.37,2.66,8.312,3.08
							c2.942,0.42,6.081-0.013,8.565-1.645"/>
					</g>
					<path style="fill:#D79090;" d="M275.771,174.079c-0.285-0.452-0.661-0.818-1.083-1.103c-0.539-0.77-1.428-1.219-2.411-1.131
						c-1.152,0.103-2.243,0.71-3.007,1.572c-1.44,1.625-1.738,4.012-0.559,5.877c0.612,0.967,1.601,1.798,2.763,1.953
						c1.188,0.159,2.329-0.391,3.201-1.164C276.34,178.606,277.007,176.037,275.771,174.079z"/>
					<path style="fill:#2C2A27;" d="M270.942,175.808c0.465-0.313,1.105-0.342,1.596-0.073c0.483,0.264,0.794,0.778,0.92,1.314
						c0.126,0.536,0.085,1.097,0.006,1.642"/>
					<path style="fill:none;stroke:#000000;stroke-miterlimit:10;" d="M294.687,284.399c23.088,11.685,14.723,30.216,11.317,40.058
						c-3.406,9.842-11.064,23.602-15.54,33.007"/>
					<path style="fill:none;stroke:#000000;stroke-miterlimit:10;" d="M260.105,325.905c2.155-1.528,4.263-3.122,6.32-4.778"/>
				</g>
				<path style="fill:#78AB9C;" d="M160.971,396.777H89.831c-3.537,0-6.404-2.867-6.404-6.404v-87.998
					c0-13.107,10.625-23.732,23.732-23.732h53.811c11.731,0,21.241,9.51,21.241,21.241v75.652
					C182.212,387.267,172.702,396.777,160.971,396.777z"/>
				<path style="fill:#91C7B8;" d="M175.83,396.777h-27.314c-3.525,0-6.382-2.857-6.382-6.382v-93.558
					c0-10.048,8.146-18.194,18.194-18.194h3.689c10.048,0,18.194,8.146,18.194,18.194v93.558
					C182.212,393.919,179.354,396.777,175.83,396.777z"/>
			</g>
			<g>
				<g>
					<polyline style="fill:none;stroke:#000000;stroke-width:2;stroke-linecap:round;stroke-miterlimit:10;" points="
						632.782,419.298 620.599,380.072 594.448,380.072 572.656,419.298 					"/>
					<polyline style="fill:none;stroke:#000000;stroke-width:2;stroke-linecap:round;stroke-miterlimit:10;" points="
						507.672,419.298 495.489,380.072 469.339,380.072 447.546,419.298 					"/>
					<path style="fill:#78AB9C;" d="M435.189,398.931h77.488c3.537,0,6.404-2.867,6.404-6.404V279.609
						c0-3.537-2.867-6.404-6.404-6.404h-77.488c-11.731,0-21.241,9.51-21.241,21.241v83.243
						C413.948,389.421,423.458,398.931,435.189,398.931z"/>
					<path style="fill:#78AB9C;" d="M640.26,334.928c0.12-3.576,17.211-71.959,22.972-94.921c1.167-4.652-0.094-9.572-3.349-13.094
						l-28.706-17.86c-3.195-1.962-3.059,2.649-3.938,6.295l-25.334,105.108L640.26,334.928z"/>
					<path style="fill:#91C7B8;" d="M488.37,336.068h114.329l31.524-119.191c1.193-4.51-2.197-8.931-6.862-8.95l-95.312-1.103
						c-10.493,0-19.523,7.415-21.564,17.708L488.37,336.068z"/>
					<rect x="450.695" y="335.025" style="fill:#78AB9C;" width="156.102" height="40.326"/>
					<rect x="466.514" y="370.629" style="fill:#78AB9C;" width="140.283" height="28.302"/>
					<line style="fill:none;stroke:#000000;stroke-miterlimit:10;" x1="587.812" y1="368.086" x2="483.617" y2="368.086"/>
				</g>
				<g>
					<g>
						<path style="fill:#5874A8;" d="M509.078,298.075c6.33,4.991,9.834,11.823,14.76,18.392c3.641,4.466,11.143,8.056,17.957,8.551
							c8.495,0.617,18.798-0.086,26.831-4.671c9.995-5.706,15.331-16.859,19.002-27.381c0.891-2.554,1.389-4.677,0.8-7.156
							c-1.004-4.224-4.131-7.649-7.554-10.146c-1.615-1.178-3.349-1.806-4.12-3.777c-0.693-1.772-0.362-3.781-1.054-5.561
							c-0.704-1.813-2.407-3.087-4.231-3.762c-3.236-1.198-6.94-0.743-10.043,0.766c-1.623,0.789-3.087,1.852-4.415,3.068
							c-0.675,0.617-2.161,2.795-2.995,3.003c-0.305,0.076-0.62-0.058-0.906-0.189c-9.541-4.358-19.46-7.554-29.35-10.943
							c-11.205-3.839-24.368-8.718-36.338-6.677c-9.24,1.575-18.423,7.232-20.66,16.882c-0.045,0.196-0.087,0.392-0.127,0.589
							c-0.571,2.853-0.451,5.8-0.148,8.694c0.163,1.56,0.448,3.253,1.617,4.299c0.877,0.785,2.093,1.051,3.258,1.227
							c1.559,0.235,3.143,0.36,4.711,0.2c3.192-0.327,6.471-1.583,9.69-0.868c3.909,0.869,7.086,4.274,10.405,6.419
							C500.581,291.886,504.95,294.82,509.078,298.075z"/>
					</g>
				</g>
				<path style="fill:#91C7B8;" d="M418.757,398.931h29.889c3.525,0,6.382-2.857,6.382-6.382v-99.98
					c0-10.694-8.669-19.364-19.364-19.364h-3.926c-10.694,0-19.363,8.669-19.363,19.363v99.981
					C412.375,396.074,415.232,398.931,418.757,398.931z"/>
				<g>
					<path style="fill:#D79090;" d="M522.961,262.789c-3.264,1.223-3.191,0.28-7.008-0.25c-5.963-0.827-11.521-4.247-14.947-9.198
						c-2.085-3.013-3.993-6.976-2.031-10.503c1.013-1.821,2.86-3.156,4.907-3.546c2.957-0.564,5.9,0.757,8.725,1.796
						c0.242,0.089,0.497,0.178,0.752,0.143c0.314-0.043,0.571-0.264,0.809-0.475c5.919-5.268,11.786-10.599,17.865-15.68
						c8.582-7.172,18.29-13.002,28.677-17.155c2.574-1.029,5.461-1.961,8.059-0.993c3.825,1.426,5.133,6.201,5.092,10.283
						c-0.124,12.27-5.933,15.694-15.635,22.42c-5.129,3.555-12.542,12.536-18.259,15.01
						C535.329,256.648,527.554,261.068,522.961,262.789z"/>
				</g>
				<g>
					<path style="fill:#5874A8;" d="M608.753,311.503c-1.283,4.51-2.595,9.086-5.03,13.066c-4.969,8.119-14.158,12.789-23.42,14.133
						c-9.262,1.344-18.682-0.243-27.822-2.287c-20.605-4.608-41.715-10.297-59.565-22.082c-5.947-3.927-18.73-11.693-19.717-19.575
						c-1.245-9.938,11.026-16.122,19.037-16.477c17.841-0.791,39.309,4.928,56.374,9.788c5.612,1.599,11.545-1.398,13.71-6.938
						c1.115-2.852,2.312-5.671,3.589-8.451c1.012-2.203,2.211-4.526,4.333-5.621c2.351-1.214,5.168-0.59,7.721,0.067
						c6.889,1.774,13.824,3.636,20.166,6.917c5.213,2.696,13.252,7.84,14.883,14.084
						C614.786,294.918,610.587,305.056,608.753,311.503z"/>
				</g>
				<g>
					<path style="fill:#FFFFFF;" d="M612.081,292.457c-2.081-1.433-4.214-2.808-6.385-4.129c2.897,2.536,5.182,5.727,7.189,8.989
						c0.524-1.036,1.041-2.086,1.557-3.136C613.676,293.577,612.881,293.008,612.081,292.457z"/>
					<path style="fill:#FFFFFF;" d="M627.756,233.072c-1.912-7.262-5.002-14.438-8.602-21.426
						c-2.779-5.394-6.706-12.234-12.524-14.853c-6.348-2.857-12.276-1.584-18.982-0.956c-0.972,0.091-1.991,0.198-2.798,0.748
						c-0.858,0.585-1.333,1.572-1.769,2.515c-4.752,10.285-8.361,21.054-13.085,31.351c-4.84,10.55-10.888,20.622-16.39,30.84
						c-1.321,2.452-2.124,4.349-4.091,6.321c5.737,4.031,10.167,5.781,16.357,8.399c7.875,3.33,16.218,5.835,24.265,8.731
						c2.677,0.963,5.383,1.934,8.21,2.253c10.063,1.138,19.326-6.24,24.605-14.882C630.825,259.224,631.162,246.013,627.756,233.072
						z"/>
					<g>
						<path style="fill:#FFFFFF;" d="M602.443,276.252c-0.033-0.031-0.066-0.062-0.099-0.094
							c-4.919-4.673-6.484-13.175-5.405-19.614c0.837-4.993,2.069-9.099,4.418-13.658c5.374-10.429,11.33-21.002,20.643-28.136
							c2.968-2.273,6.332-4.191,10.03-4.742c15.638-2.33,15.586,19.589,14.29,29.317c-1.313,9.85-2.636,19.749-5.482,29.271
							c-0.816,2.732-1.78,5.471-3.451,7.782c-2.663,3.68-6.392,4.659-10.704,4.901c-3.612,0.203-7.238,0.134-10.839-0.205
							C611.03,280.619,605.978,279.541,602.443,276.252z"/>
					</g>
				</g>
				<g>
					<path d="M420.839,414.48c-5.292,4.681-10.905,9.037-15.441,14.409c-0.957,1.133-1.857,2.37-2.228,3.805
						c-3.068,11.859,14.696,11.018,20.618,7.686c12.813-7.207,22.515-24.409,29.157-36.976c3.878-7.337,10.874-17.979,10.376-26.453
						c-0.065-1.112-0.255-2.242-0.785-3.221c-1.106-2.043-3.532-3.081-5.853-3.185c-4.634-0.208-8.94,2.733-11.691,6.469
						c-2.75,3.736-4.252,8.216-5.883,12.559C435.194,400.001,429.07,407.198,420.839,414.48z"/>
				</g>
				<path style="fill:#D79090;" d="M580.415,298.48c2.79,0.488,5.581,0.976,8.371,1.464c5.736,1.003,11.951,2.214,17.685,0.617
					c5.871-1.636,9.899-6.805,9.25-13.03c-0.809-7.761-9.563-8.321-15.633-8.816c-7.957-0.648-15.962-0.335-23.91,0.283
					c-4.07,0.317-8.132,0.725-12.193,1.139c-5.514,0.563-11.09,0.661-16.553,1.666c-2.628,0.484-5.249,1.108-7.727,2.127
					c-2.283,0.939-4.832,2.171-6.651,3.863c-0.343,0.319-0.667,0.673-0.863,1.098c-0.196,0.426-0.251,0.936-0.055,1.361
					c0.261,0.568,0.788,0.623,1.318,0.715c-0.447,0.739-0.765,1.686-0.494,2.542c0.27,0.852,1.339,1.467,2.102,1.002
					c0.107,0.912,0.911,1.625,1.792,1.883c0.881,0.258,1.826,0.143,2.727-0.033c0.292,0.9,1.472,1.092,2.417,1.036
					c2.614-0.155,4.987-1.222,7.51-1.769c2.734-0.592,5.465-1.238,8.252-1.534c4.486-0.477,7.794,0.895,12.062,1.796
					c2.84,0.599,5.404,1.683,8.247,2.18C578.852,298.207,579.633,298.344,580.415,298.48z"/>
				<path style="fill:#78AB9C;" d="M580.494,398.931h77.487c3.537,0,6.404-2.867,6.404-6.404V290.641
					c0-9.629-7.806-17.436-17.435-17.436h-66.456c-11.731,0-21.241,9.51-21.241,21.241v83.243
					C559.252,389.421,568.762,398.931,580.494,398.931z"/>
				<path style="fill:#91C7B8;" d="M565.634,398.931h29.889c3.525,0,6.382-2.857,6.382-6.382v-99.98
					c0-10.694-8.669-19.364-19.364-19.364h-3.926c-10.694,0-19.363,8.669-19.363,19.363v99.981
					C559.252,396.074,562.11,398.931,565.634,398.931z"/>
				<g>
					<path style="fill:#5874A8;" d="M498.283,279.58c-6.344-1.156-12.973-0.048-17.943,4.013
						c-5.704,4.662-9.278,11.41-12.547,18.041c-13.525,27.43-27.689,58.429-33.408,88.77c6.321,2.833,21.214,4.017,28.82,6.526
						c1.006,0.332,2.105-0.1,2.644-1.012c4.302-7.276,21.554-37.168,33.689-54.075c7.771-10.826,18.832-25.125,19.389-39.141
						C519.403,290.754,509.29,281.585,498.283,279.58z"/>
				</g>
				<g>
					<path style="fill:#FFFFFF;" d="M587.25,196.549c1.769-1.29,4.089-1.642,6.295-1.805c12.453-0.924,25.096,1.619,36.331,7.034
						c10.66,5.139,16.631,17.281,16.958,28.774c0.141,4.939-1.04,10.576-5.305,13.07c-2.376,1.389-5.326,1.514-8.012,0.914
						c-2.686-0.6-5.171-1.865-7.611-3.138c-12.529-6.536-24.773-13.624-36.623-21.323c-1.958-1.272-3.961-2.615-5.246-4.566
						c-2.195-3.333-1.115-8.76-0.288-12.406c0.524-2.311,1.311-4.714,3.115-6.251C586.99,196.746,587.118,196.645,587.25,196.549z"
						/>
				</g>
				<path style="fill:#D79090;" d="M610.914,184.954c0.244-3.365,0.477-6.987,1.372-10.22c0.788-2.844,1.772-5.52,2.182-8.514
					c0.667-4.862,0.005-12.981-4.709-15.778c-1.467-0.871-3.137-1.328-4.783-1.776c-1.75-0.476-3.501-0.952-5.251-1.428
					c-1.599-0.435-3.225-0.873-4.882-0.834c-1.656,0.039-3.378,0.626-4.418,1.916c-0.734,0.91-3.185,1.349-3.481,2.479
					c-2.426,9.27-3.304,20.66,2.433,29.36c1.385,2.1,3.088,2.652,3.545,5.279c0.419,2.408,0.092,4.952-0.973,7.156
					c-0.547,1.132-1.061,1.986-2.162,2.472c-0.398,0.176-3.705,0.596-4.251,0.681c3.037,5.406,7.945,10.479,14.134,10.856
					c1.315,0.08,2.636-0.058,3.935-0.281c6.577-1.128,10.91-5.849,17.053-8.13c-1.653-0.636-3.305-1.272-4.958-1.908
					c-1.146-0.441-2.311-0.892-3.28-1.646c-2.668-2.074-1.767-6.16-1.548-9.112C610.886,185.336,610.901,185.145,610.914,184.954z"
					/>
				<g>
					<path d="M594.502,141.133c1.309,0,2.634,0.162,3.944,0.243c3.694,0.228,7.395-0.171,11.088,0.145
						c3.029,0.259,5.697,0.112,8.41,1.911c1.31,0.868,2.396,2.041,3.325,3.309c1.363,1.861,2.412,3.951,3.09,6.156
						c0.486,1.582,0.814,3.286,1.877,4.554c0.693,0.827,1.645,1.397,2.393,2.175c1.046,1.087,1.659,2.581,1.677,4.09
						c0.009,0.739-0.118,1.486,0.007,2.214c0.162,0.937,0.917,1.253,1.288,1.973c0.549,1.065,0.555,2.188,1.391,3.161
						c1.504,1.751,4.159,2.131,5.703,3.846c1.679,1.865,1.385,5.144-0.599,6.681c-1.437,1.113-3.371,1.272-5.185,1.382
						c-6.915,0.422-13.834,0.776-20.756,1.062c-0.224,0.009-0.453,0.018-0.67-0.039c-1.012-0.267-1.143-1.627-1.095-2.672
						c0.18-3.901,0.448-9.374-1.083-13.052c-0.803-1.93-3.32-2.415-4.125-4.331c-1.052-2.504,0.857-6.114-1.559-8.031
						c-0.986-0.782-2.334-0.958-3.586-0.832c-1.081,0.109-2.124,0.561-3.196,0.649c-0.905,0.074-1.686-0.011-2.609,0.195
						c-2.13,0.474-4.34,1.267-6.535,0.705c-2.238-0.573-4.004-2.656-4.203-4.958c-0.215-2.487,1.234-4.822,2.934-6.648
						c1.516-1.628,3.349-3.062,5.506-3.607C592.776,141.204,593.635,141.133,594.502,141.133z"/>
				</g>
				<g>
					<path style="fill:#D79090;" d="M611.295,173.71c-1.112,0.264-2.305,0.171-3.428-0.408c-2.56-1.318-2.822-5.104-1.796-7.467
						c0.637-1.467,1.949-2.648,3.502-3.031c0.995-0.245,2.041-0.169,3.053-0.007c0.506,0.081,1.021,0.188,1.458,0.457
						c0.514,0.316,0.875,0.831,1.148,1.369c0.836,1.649,0.935,3.656,0.266,5.379C614.785,171.833,613.152,173.269,611.295,173.71z"
						/>
				</g>
				<g>
					<path d="M610.634,165.895c0.762,0.218,1.413,0.867,1.558,1.663c0.145,0.797-0.283,1.692-1.021,1.986
						c-0.295,0.118-0.616,0.14-0.931,0.162c0.002-0.096,0.004-0.191,0.006-0.287"/>
				</g>
				<path d="M591.61,176.839c-0.191-0.012-0.385-0.061-0.577-0.153c-1.192-0.572-2.525-2.286-1.616-3.587
					c0.441-0.631,1.264-0.947,2.027-0.848c0.764,0.099,1.452,0.579,1.88,1.219c0.193,0.29,0.339,0.619,0.367,0.966
					C593.79,175.674,592.748,176.91,591.61,176.839z"/>
				<g>
					<path d="M459.501,337.622c0.455-1.909,0.864-3.966-0.433-5.167c-2.134-1.975-8.494-0.654-10.883,0.082
						c-1.124,0.346-2.281,0.845-2.949,1.813c-0.513,0.745-0.669,1.67-0.829,2.56c-1.765,9.789-7.909,19.729-15.923,25.898
						c-4.286,3.3-9.722,5.322-12.875,9.717c-1.661,2.315-2.431,5.77-0.511,7.875c1.281,1.404,3.338,1.749,5.236,1.861
						c6.011,0.355,12.228-0.576,17.824-2.814c6.177-2.47,11.124-6.892,15.972-11.32c0.46-0.42,0.93-0.858,1.188-1.425
						c0.266-0.585,0.28-1.249,0.291-1.891c0.153-8.616,2.225-16.595,3.433-25.061C459.134,339.106,459.321,338.375,459.501,337.622z
						"/>
				</g>
				<g>
					<path style="fill:#5874A8;" d="M443.457,306.995c-3.719,10.633-8.819,20.2-12.169,30.776c-0.334,1.053,0.146,2.2,1.127,2.708
						c4.92,2.549,13.592,5.904,17.95,6.836c1.708,0.365,9.22,2.839,10.306,1.223c14.933-22.231,29.453-46.425,38.706-71.65
						c2.832-7.72,6.682-18.629-2.506-23.837c-2.331-1.322-5.055-1.753-7.722-1.492c-10.326,1.012-20.961,8.878-26.107,18.189
						c-2.051,3.71-3.402,7.76-5.187,11.605C453.833,290.019,446.64,297.895,443.457,306.995z"/>
				</g>
				<g>
					<defs>
						<path id="SVGID_00000116914885154501631580000007062477151709881263_" d="M610.795,184.95
							c0.113-3.456,0.605-7.012,1.492-10.216c0.788-2.844,1.772-5.52,2.182-8.514c0.667-4.862,0.005-12.981-4.709-15.778
							c-1.467-0.871-3.137-1.328-4.783-1.776c-1.75-0.476-3.501-0.952-5.251-1.428c-1.599-0.435-3.225-0.873-4.882-0.834
							c-1.656,0.039-3.378,0.626-4.418,1.916c-0.734,0.91-1.063,2.072-1.359,3.203c-2.426,9.27-5.426,19.937,0.311,28.637
							c1.385,2.1,3.088,2.652,3.545,5.279c0.419,2.408,0.092,4.952-0.973,7.156c-0.547,1.132-1.061,1.986-2.162,2.472
							c-0.398,0.176-4.044,0.888-4.251,0.681c3.037,5.406,7.945,10.479,14.134,10.856c1.315,0.08,2.636-0.058,3.935-0.281
							c2.965-0.508,6.039-1.49,8.544-3.124c1.303-0.85,6.308-5.88,7.885-5.354c-1.815-0.604-3.65-1.218-5.27-2.235
							c-1.62-1.017-3.03-2.494-3.581-4.326c-0.242-0.802-0.313-1.645-0.356-2.482C610.764,187.547,610.752,186.256,610.795,184.95z"
							/>
					</defs>
					<clipPath id="SVGID_00000103958963895698437740000015919544989763760794_">
						<use xlink:href="#SVGID_00000116914885154501631580000007062477151709881263_"  style="overflow:visible;"/>
					</clipPath>
					<path style="clip-path:url(#SVGID_00000103958963895698437740000015919544989763760794_);" d="M589.53,188.364
						c0.745,1.228,2.57,1.594,3.967,1.454c3.557-0.359,6.524-3.059,8.224-6.091c-3.726,0.979-7.688,0.008-11.28-1.385
						c-0.433,1.755-1.17,3.619-1.17,5.404C589.329,187.971,589.417,188.178,589.53,188.364z"/>
				</g>
				<path style="fill:none;stroke:#12002C;stroke-linecap:round;stroke-linejoin:round;stroke-miterlimit:10;" d="M534.67,285.478
					c-4.817-1.15-31.855-7.024-36.672-8.175c-7.44,26.784-21.867,49.177-37.472,72.182"/>
				<path style="fill:#D79090;" d="M489.553,241.774c2.863,3.654,5.726,7.308,8.589,10.962c5.019,6.405,9.274,12.819,17.921,12.376
					c5.49-0.282,12.741-5.284,13.764-6.598c1.193-1.531-0.998-6.296-1.974-7.961c-1.711-2.919-3.991-5.466-6.198-8.013
					c-6.3-7.271-13.451-13.755-20.812-19.928c-3.769-3.161-7.608-6.237-11.452-9.307c-3.044-2.431-6.453-4.612-7.983-8.397
					c-0.757-1.873-1.007-3.974-2.138-5.648c-0.756-1.119-1.861-1.972-2.591-3.108c-0.49-0.764-0.811-1.654-1.467-2.28
					c-0.657-0.626-1.845-0.847-2.415-0.141c-0.306,0.38-0.341,0.909-0.304,1.395c0.119,1.584,1.414,3.019,1.425,4.542
					c0.016,2.081-2.402-0.115-2.961-0.624c-2.259-2.057-5.086-3.629-7.653-5.291c-0.689-0.446-1.435-0.898-2.256-0.887
					c-0.82,0.011-1.682,0.703-1.555,1.513c-1.028-0.456-2.141-0.923-3.242-0.698c-1.102,0.225-2.048,1.483-1.522,2.477
					c-1.113,0.107-1.928,1.208-2.062,2.318c-0.134,1.11,0.261,2.213,0.716,3.234c0.086,0.194,0.177,0.396,0.171,0.608
					c-0.007,0.256-0.152,0.486-0.237,0.728c-1.041,2.965,2.797,5.345,4.647,6.917c3.126,2.656,6.893,4.73,10.492,6.711
					c0.734,0.404,1.475,0.801,2.167,1.275c2.044,1.397,3.586,3.397,5.093,5.362C480.42,229.447,484.798,235.705,489.553,241.774z"/>
				<g>
					<g>
						<path style="fill:#FFFFFF;" d="M588.83,208.372c-1.056-4.248,1.167-5.578-3.292-12.625
							c-11.336,1.639-23.713,4.935-33.08,10.937c-12.683,8.127-24.869,16.616-35.271,27.62c1.325,1.747,3.01,3.226,4.526,4.804
							c2.328,2.423,4.554,4.977,6.797,7.48c2.317,2.586,4.489,5.304,6.916,7.791c0.96,0.984,1.925,1.871,3.071,2.603
							c0.35-0.108,0.686-0.284,1.008-0.465c16.37-9.184,39.276-27.022,45.827-37.269c1.648-2.579,2.862-5.394,3.984-8.251
							C589.153,210.122,588.992,209.247,588.83,208.372z"/>
					</g>
				</g>
				<path style="fill:none;stroke:#12002C;stroke-linecap:round;stroke-miterlimit:10;" d="M617.715,229.963
					c2.6,3.63,1.349,8.62,0.133,12.917c-2.641,9.335-5.247,20.502-6.547,30.115"/>
				<path style="fill:none;stroke:#12002C;stroke-linecap:round;stroke-miterlimit:10;" d="M565.547,239.208
					c2.454-5.615,3.522-8.747,5.635-14.499"/>
				<path style="fill:none;stroke:#12002C;stroke-linecap:round;stroke-miterlimit:10;" d="M512.608,261.491
					c1.026,0.563,2.217,0.821,3.385,0.735"/>
				<path style="fill:none;stroke:#12002C;stroke-linecap:round;stroke-miterlimit:10;" d="M473.992,200.458
					c-0.528,1.442-0.598,3.048-0.197,4.53"/>
				<path style="fill:none;stroke:#12002C;stroke-linecap:round;stroke-miterlimit:10;" d="M459.43,194.378
					c0.291,0.244,0.582,0.489,0.873,0.733c2.571,2.16,5.143,4.32,7.714,6.48"/>
				<path style="fill:none;stroke:#12002C;stroke-linecap:round;stroke-miterlimit:10;" d="M454.802,196.435
					c3.249,2.758,7.022,5.985,10.504,8.441"/>
				<path style="fill:none;stroke:#12002C;stroke-linecap:round;stroke-miterlimit:10;" d="M453.533,202.346
					c2.917,2.343,6.009,4.468,9.242,6.352"/>
				<path style="fill:none;stroke:#12002C;stroke-linecap:round;stroke-miterlimit:10;" d="M517.457,237.744
					c0.931,0.93,1.656,2.065,2.109,3.3"/>
			</g>
			<g>
				
					<line style="fill:none;stroke:#CC5454;stroke-width:2;stroke-miterlimit:10;" x1="302.03" y1="381.624" x2="287.145" y2="452.15"/>
				
					<line style="fill:none;stroke:#CC5454;stroke-width:2;stroke-miterlimit:10;" x1="432.947" y1="381.624" x2="447.832" y2="452.15"/>
				<path style="fill:#CC5454;" d="M473.378,376.579c0,8.759-47.006,12.555-104.991,12.555c-57.985,0-104.991-3.796-104.991-12.555
					c0-8.759,47.006-12.555,104.991-12.555C426.372,364.024,473.378,367.82,473.378,376.579z"/>
				<path d="M393.223,367.085c1.065,2.34,3.391,3.73,5.632,4.765c1.678,0.775,3.403,1.433,5.163,1.982
					c1.822,3.758,5.661,6.355,10.118,6.355l0,0c6.213,0,11.25-5.037,11.25-11.25v-12.505h-22.501v3.532
					c-0.661-0.37-1.357-0.676-2.103-0.874c-2.151-0.57-4.567-0.146-6.303,1.265C392.434,362.017,392.176,364.786,393.223,367.085z
					 M395.969,363.672c-0.052,0.142,0.117-0.232,0.118-0.233c0.039-0.068,0.081-0.133,0.122-0.198
					c0.011-0.017,0.012-0.02,0.018-0.03c0.052-0.061,0.106-0.122,0.162-0.179c0.078-0.08,0.365-0.322,0.303-0.277
					c-0.062,0.045,0.264-0.159,0.362-0.212c0.073-0.04,0.148-0.076,0.224-0.112c0.039-0.016,0.096-0.04,0.115-0.046
					c0.181-0.056,0.361-0.116,0.545-0.16c0.055-0.013,0.328-0.061,0.367-0.073c0.166-0.017,0.333-0.028,0.5-0.03
					c0.729-0.01,1.256,0.097,1.988,0.442c0.771,0.363,1.45,0.849,2.091,1.386v4.988c0,0.364,0.021,0.724,0.055,1.079
					c-0.858-0.318-1.707-0.657-2.537-1.043c-1.647-0.768-3.498-1.675-4.267-3.36C395.841,364.968,395.774,364.199,395.969,363.672z"
					/>
				<path d="M299.205,366.181c1.065,2.34,3.391,3.73,5.632,4.765c1.677,0.775,3.402,1.433,5.163,1.982
					c1.822,3.758,5.661,6.355,10.118,6.355h0c6.213,0,11.25-5.037,11.25-11.25v-12.505h-22.5v3.532
					c-0.661-0.37-1.357-0.676-2.103-0.874c-2.151-0.57-4.567-0.146-6.303,1.265C298.417,361.113,298.159,363.882,299.205,366.181z
					 M301.951,362.768c-0.052,0.142,0.117-0.232,0.118-0.233c0.038-0.068,0.081-0.133,0.123-0.199
					c0.011-0.017,0.012-0.019,0.018-0.03c0.052-0.061,0.106-0.122,0.161-0.179c0.078-0.08,0.365-0.322,0.303-0.277
					c-0.062,0.045,0.264-0.159,0.362-0.212c0.073-0.04,0.148-0.077,0.224-0.112c0.039-0.016,0.096-0.04,0.115-0.046
					c0.181-0.056,0.36-0.116,0.545-0.16c0.055-0.013,0.328-0.061,0.367-0.073c0.166-0.017,0.333-0.028,0.5-0.03
					c0.728-0.01,1.256,0.096,1.988,0.441c0.771,0.363,1.449,0.85,2.091,1.386v4.988c0,0.364,0.021,0.724,0.054,1.079
					c-0.858-0.318-1.707-0.657-2.536-1.043c-1.648-0.768-3.498-1.675-4.268-3.36C301.823,364.064,301.756,363.296,301.951,362.768z"
					/>
				<g>
					<path style="fill:#78AB9C;" d="M378.384,295.214c1.043-1.292,2.311-2.401,3.625-3.423c4.533-3.529,9.746-6.181,15.268-7.766
						c-0.207,2.486-0.414,4.973-0.621,7.459c-0.173,2.082-0.362,4.221-1.284,6.097c-1.691,3.441-5.151,6.319-8.115,8.572
						c-1.365,1.037-13.799,9.202-13.549,10.183c-1.382-5.406-0.372-9.145,1.376-14.274c0.698-2.05,1.41-4.127,2.618-5.925
						C377.915,295.818,378.144,295.511,378.384,295.214z"/>
					<path style="fill:#78AB9C;" d="M359.707,291.473c-0.286-2.669,0.288-5.481,1.551-7.734c1.34-2.388,3.405-4.272,5.434-6.111
						c2.339-2.119,4.678-4.239,7.017-6.358c0.47-0.426,3.462,7.907,3.589,8.68c0.475,2.89,0.681,6.53-0.959,9.097
						c-1.428,2.234-3.961,3.777-5.485,6.062c-2.064,3.095-3.183,6.594-4.465,10.053c-1.076-1.808-1.833-3.706-2.706-5.608
						c-0.805-1.754-1.803-2.384-2.627-3.808C360.309,294.455,359.87,292.987,359.707,291.473z"/>
					<path style="fill:none;stroke:#000000;stroke-miterlimit:10;" d="M380.92,303.499c-5.461,6.116-7.559,14.536-8.318,22.7
						c-0.759,8.164-0.371,16.436-1.728,24.522"/>
					<path style="fill:none;stroke:#000000;stroke-miterlimit:10;" d="M366.381,292.591c-0.035,6.472-0.07,12.964,0.681,19.392
						c0.234,2.002,0.543,3.993,0.799,5.992c1.345,10.494,1.207,21.177-0.408,31.633"/>
					<polygon points="380.111,377.317 381.582,331.416 358.392,331.416 359.863,377.317 					"/>
				</g>
			</g>
			<path style="fill:none;stroke:#12002C;stroke-linecap:round;stroke-miterlimit:10;" d="M348.837,177.779
				c0-1.492-0.212-2.92-0.826-4.188c-0.613-1.268-1.482-2.393-2.385-3.474"/>
			<path style="fill:none;stroke:#12002C;stroke-linecap:round;stroke-miterlimit:10;" d="M583.605,175.511
				c-8.181,1.568-18.218,0.572-25.686-3.188c-7.614-3.833-13.817-9.621-21.867-12.686c-7.814-2.975-17.042-2.032-23.977,2.787
				c-3.733,2.595-11.142,11.29-5.306,15.616c1.086,0.805,2.546,0.86,3.894,0.757c16.258-1.246,25.918-19.769,19.605-34.236
				c-6.331-14.509-22.887-21.959-38.621-23.697c-22.325-2.467-48.351,6.865-55.607,28.121c-1.919,5.622-2.232,12.287,1.262,17.092
				c1.905,2.62,4.759,4.422,7.766,5.63c16.65,6.692,37.267-6.386,40.397-24.055c3.13-17.669-9.583-35.987-26.649-41.532
				c-17.066-5.545-36.665,0.568-49.521,13.088c-12.856,12.519-19.41,30.555-20.449,48.47c-1.003,17.283,5.379,37.759,21.941,42.799
				c9.214,2.803,19.308-0.066,27.666-4.851c15.557-8.906,27.249-25.276,28.205-43.177c0.955-17.901-10.151-36.435-27.205-41.959
				c-6.271-2.031-13.243-2.301-19.393,0.072c-13.097,5.055-19.111,20.15-21.525,33.979c-2.596,14.875-1.435,32.863,11.086,41.304
				c10.251,6.911,24.919,4.204,34.295-3.854c9.375-8.059,14.198-20.288,16.427-32.449c3.921-21.395,0.464-44.56-11.88-62.469
				c-9.938-14.417-25.988-24.978-43.438-27.365c-16.916-2.315-35.368,10.99-45.611,23.489
				c-9.477,11.564-15.441,26.264-12.916,41.291c2.07,12.317,9.786,23.607,23.092,24.761c15.463,1.341,30.674-9.995,40.242-21.064
				c9.181-10.621,16.07-24.042,15.558-38.071c-0.689-18.862-15.116-34.086-32.142-40.378c-17.746-6.559-37.107,0.76-49.862,13.783
				c-15,15.315-19.8,36.875-14.745,57.461c0.459,1.869,0.984,3.721,1.564,5.556c3.488,11.037,8.366,15.653,16.483,23.161"/>
			<path style="fill:#D79090;" d="M363.435,171.665c-0.323-1.791-0.709-3.572-1.527-5.191c-1.883-3.725-5.872-6.133-9.715-7.395
				c-3.066-1.006-7.389-2.1-9.991,0.519c-0.292,0.294-0.551,0.635-0.677,1.03c-0.265,0.827,0.104,1.751,0.705,2.378
				c0.601,0.626,1.402,1.015,2.185,1.39c-1.074,0.467-1.913,1.509-2.001,2.676c-0.124,1.636,1.373,2.864,2.676,3.542
				c-0.556,0.777-1.26,1.539-1.239,2.568c0.022,1.085,0.912,1.998,1.923,2.391c1.011,0.393,2.129,0.375,3.212,0.352
				c0.092-0.003,3.091,5.258,3.13,5.953c0.145,2.616-1.094,5.938-1.794,8.438c-1.149,4.102-3.45,10.2,0.22,13.836
				c1.425,1.412,3.526,1.84,5.503,2.178c2.483,0.425,5.361,0.703,7.21-1.008c1.64-1.517,1.808-4.01,1.833-6.244
				c0.055-4.928-0.049-9.862-0.443-14.777C364.307,180.109,364.178,175.781,363.435,171.665z"/>
			<path style="fill:none;stroke:#12002C;stroke-linecap:round;stroke-miterlimit:10;" d="M348.844,177.24
				c-0.149,4.57-0.135,9.622,2.876,13.064c1.464,1.673,3.498,2.769,4.96,4.443c2.333,2.671,2.908,6.435,3.008,9.98
				c0.276,9.775-3.734,19.49-12.184,24.959c-8.305,5.374-18.189,0.986-26.113,5.184c-7.735,4.098-11.659,13.489-14.343,21.316
				c-3.328,9.706-6.966,20.114-15.852,26.194c-9.956,6.812-26.517,6.194-37.458,2.492c-4.635-1.568-9.182-3.812-14.074-3.92
				c-5.123-0.114-9.968,2.129-14.598,4.324c-5.87,2.782-12.036,5.634-17.461,9.193c-5.382,3.531-9.297,8.88-14.641,12.477
				c-4.481,3.016-9.747,4.74-14.134,7.89c-4.388,3.15-7.934,8.528-6.532,13.745c0.529,1.969,1.703,3.689,2.792,5.412
				c3.303,5.226,5.955,12.127,2.624,17.335c-1.931,3.018-5.397,4.612-8.172,6.878c-4.612,3.767-7.369,9.705-7.27,15.659
				c0.031,1.874,0.341,3.776,1.197,5.444c4.437,8.647,17.435,7.71,21.671,17.216c5.221,11.716,2.029,27.816-5.011,38.008
				c-9.025,13.065-25.887,20.224-41.555,17.643c-6.033-0.994-11.733-3.293-17.204-5.956c-2.45-1.192-4.844-2.696-7.401-3.491
				c-2.907-0.904-5.263-1.018-7.508-3.463c-0.91-0.991-1.658-2.24-1.626-3.586c0.071-2.916,3.751-4.511,6.593-3.857
				c4.541,1.046,7.589,6.348,6.208,10.798c-1.121,3.61-4.575,6.101-8.214,7.125c-3.638,1.023-7.492,0.828-11.269,0.665
				c-3.776-0.163-7.647-0.272-11.237,0.909c-3.817,1.256-7.013,3.867-10.112,6.425"/>
			<path style="fill:none;stroke:#000000;stroke-miterlimit:10;" d="M206.62,292.75c7.587-5.781,11.398-15.086,16.578-23.096
				c7.12-11.009,17.081-19.829,26.914-28.501"/>
			<path style="fill:#D79090;" d="M193.408,284.591c-1.383-3.007-3.692-5.153-6.683-6.533c-1.193-0.551-2.576-1.029-3.789-0.523
				c-0.553,0.231-1.006,0.646-1.43,1.069c-2.521,2.514-4.42,5.575-6.184,8.668c-3.788,6.642-8.168,13.473-9.026,21.154
				c-0.796,7.127,0.411,10.989,2.534,17.738c0.596,1.895,2.65,6.856,3.486,8.65c0.823,1.766,1.464,3.366,2.008,5.259
				c0.058,0.203,0.119,0.41,0.242,0.582c0.153,0.213,0.388,0.352,0.627,0.461c0.351,0.159,0.756,0.267,1.119,0.137
				c0.432-0.154,0.689-0.597,0.844-1.029c0.808-2.247-0.085-5.365-0.737-7.559c-0.21-0.707-0.53-1.392-0.782-2.085
				c-0.322-0.887-0.495-2.242-1.146-2.927c0.613,0.644,1.756,0.515,2.397-0.101c0.641-0.616,0.856-1.564,0.833-2.453
				c1.093,0.326,2.337-0.248,2.951-1.209c0.398-0.623,0.551-1.374,0.508-2.106c-0.047-0.793-0.887-1.686-0.054-1.299
				c2.018,0.939,3.102,0.133,3.848-0.986c0.521-0.781,0.842-2.454,0.938-3.388c0.15-1.457-0.029-2.947-0.522-4.326
				c-0.079-0.222-0.178-0.456-0.376-0.584c-0.486-0.313-1.077,0.221-1.355,0.727c-0.297,0.54-0.524,1.118-0.674,1.715
				c-0.043-1.12-0.215-2.235-0.507-3.317c-0.275-1.018-0.837-1.935-1.124-2.93c-0.282-0.977,0.485-1.602,1.04-2.348
				c0.652-0.877,1.309-1.751,2.03-2.573c1.041-1.185,2.201-2.256,3.271-3.413c1.339-1.447,2.762-2.834,3.883-4.455
				c1.036-1.499,2.977-3.582,3.297-5.376C195.109,287.918,194.272,286.47,193.408,284.591z"/>
			<path style="fill:none;stroke:#12002C;stroke-linecap:round;stroke-miterlimit:10;" d="M349.58,171.687c0.482,0,0.965,0,1.447,0"
				/>
			<path style="fill:none;stroke:#12002C;stroke-linecap:round;stroke-miterlimit:10;" d="M349.786,167.759
				c0.62-0.138,1.241-0.276,1.861-0.413"/>
			<path style="fill:none;stroke:#12002C;stroke-linecap:round;stroke-miterlimit:10;" d="M349.789,162.98
				c0.551,0.069,1.103,0.137,1.654,0.206"/>
			<path style="fill:none;stroke:#12002C;stroke-linecap:round;stroke-miterlimit:10;" d="M284.422,179.989
				c0.805,0.868,2.018,1.34,3.198,1.243c1.18-0.097,2.3-0.76,2.953-1.747"/>
			<ellipse style="fill:#2C2A27;" cx="259.443" cy="149.049" rx="10.337" ry="10.647"/>
			<path style="fill:none;stroke:#000000;stroke-miterlimit:10;" d="M181.499,277.392c3.868,0.024,7.695,1.761,10.26,4.657
				c2.565,2.896,3.827,6.905,3.383,10.748"/>
			<path style="fill:none;stroke:#12002C;stroke-linecap:round;stroke-miterlimit:10;" d="M181.292,307.227
				c-0.425-0.7-0.803-1.429-1.13-2.18"/>
			<path style="fill:none;stroke:#12002C;stroke-miterlimit:10;" d="M174.77,327.898c-0.378-0.841-1.06-2.193-1.25-3.095"/>
			<path style="fill:none;stroke:#12002C;stroke-miterlimit:10;" d="M177.72,325.099c-0.155-0.439-0.934-2.866-1.088-3.305"/>
			<path style="fill:none;stroke:#12002C;stroke-miterlimit:10;" d="M181.012,320.74c-0.615-0.889-0.987-1.945-1.066-3.023"/>
			<path style="fill:none;stroke:#12002C;stroke-miterlimit:10;" d="M182.955,313.593c0.129,0.952,0.257,1.903,0.385,2.855"/>
		</g>
		<path style="fill:none;stroke:#12002C;stroke-linecap:round;stroke-miterlimit:10;" d="M600.9,279.604
			c2.397,2.701,4.118,5.997,4.964,9.508"/>
		
			<line style="fill:none;stroke:#12002C;stroke-linecap:round;stroke-miterlimit:10;" x1="607.104" y1="301.103" x2="607.104" y2="324.686"/>
		<path style="fill:none;stroke:#12002C;stroke-linecap:round;stroke-miterlimit:10;" d="M446.63,278.659
			c2.064,1.224,3.679,3.188,4.48,5.451"/>
		<path style="fill:none;stroke:#12002C;stroke-linecap:round;stroke-miterlimit:10;" d="M151.575,279.086
			c-4.875,1.539-9.177,3.277-11.943,7.577"/>
		
			<line style="fill:none;stroke:#12002C;stroke-linecap:round;stroke-miterlimit:10;" x1="135.863" y1="297.796" x2="135.863" y2="314.753"/>
		<g>
			<path style="fill:#A5D9CA;" d="M546.12,94.327L546.12,94.327c-6.751,0-12.224-5.473-12.224-12.224V69.879h24.448v12.224
				C558.344,88.854,552.871,94.327,546.12,94.327z"/>
			<path style="fill:#A5D9CA;" d="M558.344,118.775h-24.448v-12.224c0-6.751,5.473-12.224,12.224-12.224l0,0
				c6.751,0,12.224,5.473,12.224,12.224V118.775z"/>
			
				<line style="fill:none;stroke:#1C0C00;stroke-linecap:round;stroke-miterlimit:10;" x1="531.494" y1="69.879" x2="561.41" y2="69.879"/>
			<path d="M536.357,82.628v0.627c0,5.392,4.371,9.762,9.763,9.762l0,0c5.392,0,9.762-4.371,9.762-9.762v-0.627H536.357z"/>
			<path d="M556.989,117.303c-0.902-3.199-5.419-6.955-10.87-6.955h0c-5.45,0-9.968,3.756-10.87,6.955H556.989z"/>
			
				<line style="fill:none;stroke:#1C0C00;stroke-linecap:round;stroke-miterlimit:10;" x1="531.494" y1="117.455" x2="561.41" y2="117.455"/>
		</g>
		<g>
			<circle style="fill:#A5D9CA;" cx="270.855" cy="87.596" r="33.365"/>
			<polyline style="fill:none;stroke:#648F82;stroke-linecap:round;stroke-miterlimit:10;" points="284.121,64.013 270.855,87.596 
				289.337,87.401 			"/>
			<g>
				<g>
					<g>
						
							<line style="fill:none;stroke:#12002C;stroke-linecap:round;stroke-miterlimit:10;" x1="270.721" y1="57.268" x2="270.721" y2="61.735"/>
						
							<line style="fill:none;stroke:#12002C;stroke-linecap:round;stroke-miterlimit:10;" x1="270.721" y1="113.368" x2="270.721" y2="117.834"/>
					</g>
					<g>
						
							<line style="fill:none;stroke:#12002C;stroke-linecap:round;stroke-miterlimit:10;" x1="240.438" y1="87.551" x2="244.905" y2="87.551"/>
						
							<line style="fill:none;stroke:#12002C;stroke-linecap:round;stroke-miterlimit:10;" x1="296.538" y1="87.551" x2="301.004" y2="87.551"/>
					</g>
				</g>
				<g>
					<g>
						
							<line style="fill:none;stroke:#12002C;stroke-linecap:round;stroke-miterlimit:10;" x1="249.308" y1="66.138" x2="252.466" y2="69.296"/>
						
							<line style="fill:none;stroke:#12002C;stroke-linecap:round;stroke-miterlimit:10;" x1="288.976" y1="105.806" x2="292.135" y2="108.964"/>
					</g>
					<g>
						
							<line style="fill:none;stroke:#12002C;stroke-linecap:round;stroke-miterlimit:10;" x1="249.308" y1="108.964" x2="252.466" y2="105.806"/>
						
							<line style="fill:none;stroke:#12002C;stroke-linecap:round;stroke-miterlimit:10;" x1="288.976" y1="69.296" x2="292.135" y2="66.138"/>
					</g>
				</g>
			</g>
		</g>
		<path style="fill:none;stroke:#12002C;stroke-linecap:round;stroke-miterlimit:10;" d="M539.245,296.408
			c1.666-1.122,6.922-3.609,10.488-4.313"/>
		<path style="fill:none;stroke:#12002C;stroke-linecap:round;stroke-miterlimit:10;" d="M533.41,290.941
			c3.432-2.948,8.58-4.478,13.32-5.51"/>
		<path style="fill:none;stroke:#12002C;stroke-linecap:round;stroke-miterlimit:10;" d="M534.904,294.77
			c4.075-3.149,8.447-4.693,13.843-6.241"/>
	</g>
	<path style="fill:none;stroke:#12002C;stroke-linecap:round;stroke-miterlimit:10;" d="M511.531,323.554
		c-1.681-2.523-2.558-5.573-2.474-8.603"/>
</g>
</svg>
